# xmcd
#
# Track frame offsets:
#	150
#	18788
#	40515
#	56987
#	71498
#	88761
#	109123
#	123399
#	149636
#	174885
#	198155
#	217659
#	231390
#	245818
#	262058
#	281364
#	307123
#	328143
#
# Disc length: 4677 seconds
#
# Revision: 0
# Processed by: cddbd v1.5.2PL0 Copyright (c) Steve Scherf et al.
# Submitted via: EZCDAudioConverter 2.1.7.1
#
DISCID=0b124312
DTITLE=Procol Harum - Anthology 1/2
DYEAR=1900
DGENRE=
TTITLE0=A Whiter Shade Of Pale
TTITLE1=A Christmas Camel
TTITLE2=Quite Rightly So
TTITLE3=Long Gone Geek
TTITLE4=All This And More
TTITLE5=Whisky Train
TTITLE6=Broken Barricades
TTITLE7=Simple Sister
TTITLE8=A Salty Dog [Live]
TTITLE9=Fires (Which Burnt Brightly)
TTITLE10=Bringing Home The Bacon
TTITLE11=Beyond The Pale
TTITLE12=Nothing But The Truth
TTITLE13=Something Magic
TTITLE14=Holding On
TTITLE15=Into The Flood [Live]
TTITLE16=An Old English Dream
TTITLE17=Repent Walpurgis
EXTD=
EXTT0=
EXTT1=
EXTT2=
EXTT3=
EXTT4=
EXTT5=
EXTT6=
EXTT7=
EXTT8=
EXTT9=
EXTT10=
EXTT11=
EXTT12=
EXTT13=
EXTT14=
EXTT15=
EXTT16=
EXTT17=
PLAYORDER=
